<?xml version="1.0" standalone="no"?>
<!DOCTYPE svg PUBLIC "-//W3C//DTD SVG 20010904//EN"
 "http://www.w3.org/TR/2001/REC-SVG-20010904/DTD/svg10.dtd">
<svg version="1.0" xmlns="http://www.w3.org/2000/svg"
 width="1500.000000pt" height="1500.000000pt" viewBox="0 0 1500.000000 1500.000000"
 preserveAspectRatio="xMidYMid meet">
<metadata>
Created by potrace 1.11, written by Peter Selinger 2001-2013
</metadata>
<g transform="translate(0.000000,1500.000000) scale(0.100000,-0.100000)"
fill="#000000" stroke="none">
<path d="M1685 14382 c-94 -9 -354 -81 -426 -118 -40 -20 -187 -116 -227 -148
-42 -34 -148 -146 -175 -185 -17 -25 -33 -48 -37 -51 -11 -9 -66 -104 -92
-160 -28 -60 -53 -141 -89 -290 l-24 -95 -1 -5809 c0 -4591 2 -5823 12 -5880
31 -180 74 -321 125 -412 95 -173 205 -296 359 -406 130 -92 230 -134 440
-185 l115 -28 5835 0 5835 0 132 33 c148 36 234 66 308 107 162 91 289 205
396 354 104 147 145 251 197 505 18 87 19 293 17 5910 l-2 5821 -21 83 c-12
45 -24 96 -27 114 -3 17 -10 39 -16 49 -5 11 -7 19 -5 19 14 0 -69 170 -120
247 -89 135 -156 205 -274 291 -47 34 -90 66 -95 70 -6 5 -42 23 -80 41 -39
18 -77 37 -86 41 -9 5 -83 25 -165 46 l-149 38 -5815 1 c-3198 0 -5828 -1
-5845 -3z"/>
</g>
</svg>
