<?xml version="1.0" standalone="no"?>
<!DOCTYPE svg PUBLIC "-//W3C//DTD SVG 20010904//EN"
 "http://www.w3.org/TR/2001/REC-SVG-20010904/DTD/svg10.dtd">
<svg version="1.0" xmlns="http://www.w3.org/2000/svg"
 width="3849pt" height="2974pt" viewBox="0 0 3849.000000 2974.000000"
 preserveAspectRatio="xMidYMid meet">
    <defs>
        <linearGradient id="gradient">
            <stop offset="0" stop-color="#0083fe"></stop>
            <stop offset="50%" stop-color="#00c8d5"></stop>
        </linearGradient>
    </defs>
<g transform="translate(0.000000,2974.000000) scale(0.100000,-0.100000)" fill="url(#gradient)" stroke="none">
    <path d="M22525 27240 c-458 -55 -826 -143 -1250 -300 -684 -251 -1323 -656
-1830 -1156 -416 -411 -763 -899 -988 -1389 -169 -368 -265 -666 -347 -1070
-31 -155 -41 -221 -65 -465 -17 -172 -21 -864 -5 -1035 14 -156 38 -346 56
-440 29 -159 117 -514 150 -608 8 -22 14 -45 14 -51 0 -9 -66 -18 -217 -30
-476 -38 -910 -96 -1441 -192 -613 -111 -802 -152 -1487 -329 -339 -87 -1032
-301 -1360 -420 -71 -26 -197 -71 -280 -100 -235 -83 -737 -283 -970 -385 -77
-34 -205 -90 -285 -125 -139 -61 -271 -121 -485 -223 -124 -59 -786 -392 -800
-402 -5 -4 -48 -28 -95 -53 -615 -327 -1175 -665 -1840 -1110 -434 -290 -580
-385 -795 -518 -55 -34 -174 -108 -265 -164 -214 -132 -850 -508 -1160 -685
-168 -96 -474 -271 -540 -308 -25 -14 -88 -51 -140 -82 -52 -31 -126 -74 -165
-95 -38 -21 -140 -80 -225 -130 -85 -51 -182 -107 -215 -125 -67 -37 -95 -54
-455 -272 -429 -259 -801 -494 -990 -625 -36 -25 -121 -83 -190 -129 -69 -46
-145 -98 -170 -116 -25 -18 -139 -102 -255 -186 -619 -450 -1060 -830 -1528
-1314 -242 -251 -339 -360 -531 -598 -394 -488 -641 -896 -761 -1255 -93 -279
-105 -361 -105 -725 0 -301 11 -391 63 -546 39 -114 63 -163 124 -256 87 -132
261 -304 408 -402 103 -70 359 -194 494 -241 254 -87 589 -153 991 -196 158
-17 1038 -23 1265 -10 662 41 1383 162 1885 317 47 14 105 32 130 39 117 34
169 52 365 125 298 110 411 143 593 170 222 34 460 -49 689 -238 54 -44 187
-208 255 -311 62 -95 221 -417 286 -581 55 -137 234 -683 307 -935 273 -938
464 -1434 699 -1810 101 -162 155 -233 280 -374 160 -178 342 -320 535 -416
174 -87 352 -141 554 -170 136 -19 644 -19 1002 0 149 8 307 15 352 15 l83 0
121 -111 c155 -142 259 -217 383 -278 222 -109 362 -139 676 -148 440 -12 659
27 1070 190 263 103 729 377 1021 598 72 55 83 59 220 94 377 97 787 249 1109
410 397 198 868 509 1206 795 225 191 307 265 511 466 292 289 556 578 796
873 195 238 500 515 776 705 188 129 372 239 382 228 4 -4 14 -56 23 -117 60
-419 50 -881 -39 -1785 -39 -396 -48 -615 -42 -1074 8 -641 55 -978 200 -1436
49 -153 137 -340 240 -510 143 -236 394 -485 637 -632 138 -83 217 -117 390
-168 207 -60 256 -65 710 -65 355 0 431 3 525 19 309 51 585 142 928 304 299
142 749 442 1008 673 41 36 90 79 109 95 69 57 357 351 460 470 136 156 143
166 319 399 118 157 307 452 400 625 311 576 493 1079 607 1675 68 356 94 655
94 1100 0 533 -48 953 -159 1390 -51 202 -110 582 -132 845 -28 349 33 848
157 1278 108 374 280 773 486 1132 206 358 518 785 813 1112 44 49 109 121
144 161 148 167 589 602 721 712 25 21 72 64 105 95 33 32 94 87 136 122 42
34 115 97 164 138 130 110 381 313 595 480 320 250 1005 749 1335 973 55 37
136 92 179 122 142 100 435 298 551 375 216 142 1337 895 1615 1085 96 66 232
158 301 205 155 105 289 199 677 475 115 82 229 165 337 246 22 16 94 70 160
120 232 174 311 235 440 337 705 562 1236 1061 1655 1552 117 137 316 402 394
527 28 43 75 119 107 168 98 156 247 458 313 635 70 188 122 382 157 581 31
175 39 752 14 949 -43 340 -143 611 -324 883 -240 358 -576 636 -997 823 -292
130 -537 195 -894 236 -176 20 -783 17 -976 -5 -378 -42 -705 -133 -1089 -301
-320 -140 -743 -419 -1005 -662 -47 -44 -103 -95 -124 -114 -21 -19 -102 -104
-178 -189 -325 -360 -558 -708 -813 -1221 -152 -307 -179 -355 -260 -471 -66
-92 -208 -257 -278 -322 -75 -69 -249 -205 -341 -267 -108 -72 -353 -197 -517
-264 -220 -89 -594 -195 -924 -260 -109 -22 -472 -72 -626 -87 -128 -13 -162
-10 -154 13 5 12 14 65 50 268 36 207 47 367 52 765 4 321 2 437 -11 590 -22
242 -66 516 -117 720 -48 187 -159 529 -219 671 -100 235 -275 562 -410 764
-9 14 -32 48 -50 75 -65 97 -265 351 -361 460 -95 107 -259 272 -425 427 -203
189 -590 469 -872 632 -139 79 -489 248 -617 298 -484 186 -806 273 -1250 337
-262 38 -338 41 -959 40 -523 -1 -633 -4 -761 -19z m1328 -834 c311 -29 426
-52 717 -148 1079 -353 1958 -997 2517 -1841 323 -487 566 -1077 630 -1530 26
-179 26 -942 0 -1132 -48 -356 -123 -581 -335 -1010 -141 -284 -202 -392 -328
-578 -556 -819 -1413 -1448 -2434 -1786 -280 -93 -558 -154 -825 -180 -55 -6
-229 -16 -387 -22 -555 -24 -914 30 -1492 223 -448 149 -913 386 -1288 658
-946 686 -1596 1707 -1762 2772 -43 275 -52 454 -33 664 93 998 514 1877 1249
2606 565 561 1227 948 2030 1189 245 73 454 106 828 129 199 12 710 4 913 -14z
m11562 -1837 c478 -53 958 -270 1278 -577 251 -242 415 -547 473 -877 20 -118
19 -206 -5 -340 -78 -425 -291 -868 -646 -1340 -480 -638 -1255 -1365 -2245
-2106 -422 -316 -1314 -938 -2410 -1679 -486 -329 -622 -422 -816 -554 -364
-250 -857 -593 -1129 -785 -1214 -857 -2240 -1766 -2896 -2567 -566 -691 -957
-1403 -1174 -2138 -91 -311 -136 -533 -167 -826 -18 -172 -18 -1190 0 -1385
22 -240 52 -463 88 -645 156 -809 177 -1296 78 -1840 -179 -986 -670 -1903
-1434 -2684 -433 -442 -870 -758 -1358 -981 -260 -119 -394 -155 -651 -176
-410 -33 -704 84 -999 396 -245 259 -397 590 -472 1028 -42 246 -54 416 -54
772 0 337 7 505 44 1015 38 522 42 672 37 1220 -5 546 -9 619 -53 880 -39 230
-119 476 -202 615 -65 109 -195 238 -289 288 -128 67 -190 77 -481 77 -215 0
-269 -3 -352 -20 -300 -61 -594 -219 -1014 -543 -334 -259 -625 -525 -1626
-1487 -754 -724 -963 -922 -1310 -1240 -667 -610 -1081 -946 -1454 -1180 -269
-168 -608 -318 -862 -383 l-125 -31 -65 17 c-249 65 -514 261 -856 634 -352
383 -573 691 -743 1038 -131 266 -197 468 -230 707 -14 103 -14 124 0 222 24
172 79 381 135 511 93 216 165 352 287 539 222 339 534 698 949 1087 362 341
563 510 969 814 537 403 1119 798 2997 2035 1989 1310 2833 2013 3364 2800
242 359 457 812 494 1043 8 45 11 146 9 263 -4 183 -5 191 -32 246 -35 72 -91
123 -158 142 -72 22 -483 23 -593 2 -253 -49 -502 -173 -1525 -760 -844 -485
-950 -545 -1011 -579 -36 -19 -148 -81 -250 -137 -490 -271 -1142 -604 -1570
-802 -990 -459 -1802 -727 -2404 -794 -381 -43 -947 24 -1236 147 -238 100
-470 267 -715 513 -223 224 -344 410 -397 605 -20 76 -21 89 -10 154 38 218
169 487 364 749 711 953 2321 1986 4528 2905 833 347 2476 897 3187 1066 l142
34 19 -21 c11 -11 74 -89 140 -172 941 -1177 2131 -1843 3556 -1989 355 -36
954 -42 1361 -14 789 55 1500 273 2210 680 715 408 1240 911 1686 1614 52 83
151 242 219 354 73 119 133 207 145 211 11 5 169 23 350 40 687 66 1061 124
1488 231 789 198 1400 531 1798 982 161 183 261 337 484 746 64 118 147 264
183 325 61 101 235 367 261 398 6 7 43 56 82 108 220 292 506 581 781 787 456
343 1047 575 1578 622 92 8 105 7 255 -10z"/>
    <path d="M23485 16720 c-328 -34 -570 -85 -860 -182 -648 -218 -1079 -563
-1257 -1008 -80 -199 -110 -351 -110 -551 0 -317 100 -581 325 -859 159 -196
508 -504 1147 -1014 485 -386 629 -507 762 -635 141 -135 197 -207 252 -321
68 -141 55 -226 -51 -334 -166 -171 -525 -266 -1113 -297 -261 -13 -504 -6
-740 21 -598 70 -991 243 -1405 618 -166 150 -330 172 -505 66 -143 -86 -273
-260 -315 -419 -19 -76 -19 -214 0 -290 41 -155 164 -313 361 -460 204 -154
751 -336 1294 -429 337 -59 482 -70 925 -70 430 -1 519 4 845 50 738 102 1247
301 1556 608 176 175 276 354 320 575 24 123 15 333 -20 460 -71 255 -252 519
-575 841 -251 250 -459 424 -911 762 -414 309 -624 482 -786 649 -132 137
-194 238 -234 381 -35 128 -24 229 41 364 121 254 416 410 925 491 158 25 575
25 734 0 170 -27 319 -62 470 -111 291 -94 469 -193 597 -329 72 -78 117 -164
139 -267 23 -108 14 -182 -47 -407 -6 -24 -9 -49 -6 -56 6 -16 122 -50 242
-71 414 -72 705 112 842 534 142 439 -202 981 -825 1298 -359 183 -813 317
-1277 378 -143 18 -608 27 -740 14z"/>
</g>
</svg>
